# xmcd
#
# Track frame offsets: 
#        150
#        13490
#        26539
#        42041
#        60654
#        72734
#        94452
#        107134
#        124151
#        135019
#        148505
#        163951
#        176003
#
# Disc length: 2509 seconds
#
# Revision: 0
# Processed by: cddbd v1.5.2PL0 Copyright (c) Steve Scherf et al.
# Submitted via: ExactAudioCopy v0.99pb3
#
DISCID=bd09cb0d
DTITLE=Hot Little Mama - Let's Have A Natural Ball
DYEAR=2000
DGENRE=Blues
TTITLE0=Let's Have A Natural Ball
TTITLE1=Hey There Baby
TTITLE2=All Over Again
TTITLE3=You've Got To Love Her With A Feeling
TTITLE4=Blaamann
TTITLE5=Milk and Water
TTITLE6=Knock Out
TTITLE7=Postman
TTITLE8=Third Man Theme
TTITLE9=Keys To Her Heart
TTITLE10=Evenin'
TTITLE11=Go On Home
TTITLE12=I Got Eyes
EXTD=
EXTT0=
EXTT1=
EXTT2=
EXTT3=
EXTT4=
EXTT5=
EXTT6=
EXTT7=
EXTT8=
EXTT9=
EXTT10=
EXTT11=
EXTT12=
PLAYORDER=
